REM DIRINDEX 1\2,1\3,1\4,1\5
REM DIRNAME "folder01","folder02","folder03","folder04","folder05"
TITLE ""
FILE "1Q_t_0629-0638.mp3" MP3
  TRACK 01 AUDIO
    TITLE "3:cjc172_2825"
    INDEX 01 00:00:00
  TRACK 02 AUDIO
    TITLE "0:"
    INDEX 01 00:01:16
  TRACK 03 AUDIO
    TITLE "4:cjc172_2826"
    INDEX 01 00:01:23
  TRACK 04 AUDIO
    TITLE "0:"
    INDEX 01 00:03:42
  TRACK 05 AUDIO
    TITLE "5:cjc172_2827"
    INDEX 01 00:03:48
  TRACK 06 AUDIO
    TITLE "0:"
    INDEX 01 00:10:09
  TRACK 07 AUDIO
    TITLE "3:cjc172_2828"
    INDEX 01 00:10:56
  TRACK 08 AUDIO
    TITLE "0:"
    INDEX 01 00:11:61
  TRACK 09 AUDIO
    TITLE "4:cjc172_2829"
    INDEX 01 00:11:71
  TRACK 10 AUDIO
    TITLE "0:"
    INDEX 01 00:15:16
  TRACK 11 AUDIO
    TITLE "5:cjc172_2830"
    INDEX 01 00:15:24
  TRACK 12 AUDIO
    TITLE "0:"
    INDEX 01 00:20:60
  TRACK 13 AUDIO
    TITLE "3:cjc172_2831"
    INDEX 01 00:21:32
  TRACK 14 AUDIO
    TITLE "0:"
    INDEX 01 00:22:45
  TRACK 15 AUDIO
    TITLE "4:cjc172_2832"
    INDEX 01 00:22:55
  TRACK 16 AUDIO
    TITLE "0:"
    INDEX 01 00:24:54
  TRACK 17 AUDIO
    TITLE "5:cjc172_2833"
    INDEX 01 00:24:62
  TRACK 18 AUDIO
    TITLE "0:"
    INDEX 01 00:30:62
  TRACK 19 AUDIO
    TITLE "3:cjc172_2834"
    INDEX 01 00:31:32
  TRACK 20 AUDIO
    TITLE "0:"
    INDEX 01 00:32:51
  TRACK 21 AUDIO
    TITLE "4:cjc172_2835"
    INDEX 01 00:32:59
  TRACK 22 AUDIO
    TITLE "0:"
    INDEX 01 00:36:59
  TRACK 23 AUDIO
    TITLE "5:cjc172_2836"
    INDEX 01 00:36:67
  TRACK 24 AUDIO
    TITLE "0:"
    INDEX 01 00:42:60
  TRACK 25 AUDIO
    TITLE "3:cjc172_2837"
    INDEX 01 00:43:30
  TRACK 26 AUDIO
    TITLE "0:"
    INDEX 01 00:44:35
  TRACK 27 AUDIO
    TITLE "4:cjc172_2838"
    INDEX 01 00:44:47
  TRACK 28 AUDIO
    TITLE "0:"
    INDEX 01 00:47:24
  TRACK 29 AUDIO
    TITLE "5:cjc172_2839"
    INDEX 01 00:47:31
  TRACK 30 AUDIO
    TITLE "0:"
    INDEX 01 00:53:10
  TRACK 31 AUDIO
    TITLE "3:cjc172_2840"
    INDEX 01 00:53:57
  TRACK 32 AUDIO
    TITLE "0:"
    INDEX 01 00:55:00
  TRACK 33 AUDIO
    TITLE "4:cjc172_2841"
    INDEX 01 00:55:17
  TRACK 34 AUDIO
    TITLE "0:"
    INDEX 01 00:58:02
  TRACK 35 AUDIO
    TITLE "5:cjc172_2842"
    INDEX 01 00:58:10
  TRACK 36 AUDIO
    TITLE "0:"
    INDEX 01 01:04:34
  TRACK 37 AUDIO
    TITLE "3:cjc172_2843"
    INDEX 01 01:05:06
  TRACK 38 AUDIO
    TITLE "0:"
    INDEX 01 01:06:17
  TRACK 39 AUDIO
    TITLE "4:cjc172_2844"
    INDEX 01 01:06:29
  TRACK 40 AUDIO
    TITLE "0:"
    INDEX 01 01:08:43
  TRACK 41 AUDIO
    TITLE "5:cjc172_2845"
    INDEX 01 01:08:51
  TRACK 42 AUDIO
    TITLE "0:"
    INDEX 01 01:14:71
  TRACK 43 AUDIO
    TITLE "3:cjc172_2846"
    INDEX 01 01:15:41
  TRACK 44 AUDIO
    TITLE "0:"
    INDEX 01 01:16:39
  TRACK 45 AUDIO
    TITLE "4:cjc172_2847"
    INDEX 01 01:16:49
  TRACK 46 AUDIO
    TITLE "0:"
    INDEX 01 01:18:42
  TRACK 47 AUDIO
    TITLE "5:cjc172_2848"
    INDEX 01 01:18:50
  TRACK 48 AUDIO
    TITLE "0:"
    INDEX 01 01:22:67
  TRACK 49 AUDIO
    TITLE "3:cjc172_2849"
    INDEX 01 01:23:37
  TRACK 50 AUDIO
    TITLE "0:"
    INDEX 01 01:24:56
  TRACK 51 AUDIO
    TITLE "4:cjc172_2850"
    INDEX 01 01:24:66
  TRACK 52 AUDIO
    TITLE "0:"
    INDEX 01 01:26:10
  TRACK 53 AUDIO
    TITLE "5:cjc172_2851"
    INDEX 01 01:26:16
  TRACK 54 AUDIO
    TITLE "0:"
    INDEX 01 01:32:54
  TRACK 55 AUDIO
    TITLE "3:cjc172_2852"
    INDEX 01 01:33:28
  TRACK 56 AUDIO
    TITLE "0:"
    INDEX 01 01:34:19
  TRACK 57 AUDIO
    TITLE "4:cjc172_2853"
    INDEX 01 01:34:29
  TRACK 58 AUDIO
    TITLE "0:"
    INDEX 01 01:36:02
  TRACK 59 AUDIO
    TITLE "5:cjc172_2854"
    INDEX 01 01:36:08
  TRACK 60 AUDIO
    TITLE "0:"
    INDEX 01 01:41:45
